<svg xmlns="http://www.w3.org/2000/svg" viewBox="0 0 512 160" role="img" aria-labelledby="title desc">
  <title id="title">Bright Sky logo</title>
  <desc id="desc">Bright Sky wordmark with a sun, cloud, and precipitation icon.</desc>
  <defs>
    <linearGradient id="sky" x1="20" y1="14" x2="126" y2="146" gradientUnits="userSpaceOnUse">
      <stop offset="0" stop-color="#67C9FF"/>
      <stop offset="1" stop-color="#1C74D8"/>
    </linearGradient>
    <linearGradient id="sun" x1="88" y1="32" x2="126" y2="76" gradientUnits="userSpaceOnUse">
      <stop offset="0" stop-color="#FFE66E"/>
      <stop offset="1" stop-color="#FFB72E"/>
    </linearGradient>
  </defs>
  <rect width="512" height="160" rx="28" fill="none"/>
  <circle cx="80" cy="80" r="64" fill="url(#sky)"/>
  <circle cx="110" cy="50" r="18" fill="url(#sun)"/>
  <g fill="#FFFFFF">
    <circle cx="60" cy="84" r="18"/>
    <circle cx="82" cy="72" r="25"/>
    <circle cx="106" cy="86" r="17"/>
    <rect x="47" y="81" width="72" height="27" rx="13.5"/>
  </g>
  <g fill="#D9F2FF">
    <path d="M58 114c5 7 7 12 7 16a7 7 0 0 1-14 0c0-4 2-9 7-16z"/>
    <path d="M82 115c5 7 7 12 7 16a7 7 0 0 1-14 0c0-4 2-9 7-16z"/>
    <path d="M106 114c5 7 7 12 7 16a7 7 0 0 1-14 0c0-4 2-9 7-16z"/>
  </g>
  <text x="164" y="72" font-family="Inter, ui-sans-serif, system-ui, -apple-system, BlinkMacSystemFont, 'Segoe UI', sans-serif" font-size="42" font-weight="700" fill="#1F2937">Bright Sky</text>
  <text x="166" y="108" font-family="Inter, ui-sans-serif, system-ui, -apple-system, BlinkMacSystemFont, 'Segoe UI', sans-serif" font-size="18" font-weight="500" fill="#4B5563">DWD-backed weather for Home Assistant</text>
</svg>
